<svg width="24" height="24" viewBox="0 0 24 24" fill="none" xmlns="http://www.w3.org/2000/svg">
<g clip-path="url(#clip0_4_171)">
<path d="M7.2 1.60001C6.27788 1.59982 5.38401 1.91823 4.66968 2.50136C3.95535 3.08449 3.46442 3.89651 3.28 4.80001H0V6.40001H3.28C3.46361 7.30424 3.95418 8.11719 4.66859 8.70111C5.383 9.28503 6.27732 9.60402 7.2 9.60402C8.12268 9.60402 9.017 9.28503 9.73141 8.70111C10.4458 8.11719 10.9364 7.30424 11.12 6.40001H24V4.80001H11.12C10.9356 3.89651 10.4447 3.08449 9.73032 2.50136C9.01599 1.91823 8.12212 1.59982 7.2 1.60001ZM16.8 14.4C15.8779 14.3998 14.984 14.7182 14.2697 15.3014C13.5553 15.8845 13.0644 16.6965 12.88 17.6H0V19.2H12.88C13.0636 20.1042 13.5542 20.9172 14.2686 21.5011C14.983 22.085 15.8773 22.404 16.8 22.404C17.7227 22.404 18.617 22.085 19.3314 21.5011C20.0458 20.9172 20.5364 20.1042 20.72 19.2H24V17.6H20.72C20.5356 16.6965 20.0447 15.8845 19.3303 15.3014C18.616 14.7182 17.7221 14.3998 16.8 14.4Z" fill="white"/>
</g>
<defs>
<clipPath id="clip0_4_171">
<rect width="24" height="24" fill="white"/>
</clipPath>
</defs>
</svg>
