<svg width="14" height="15" viewBox="0 0 14 15" fill="none" xmlns="http://www.w3.org/2000/svg">
<g clip-path="url(#clip0_4_422)">
<path d="M7 0.5C4.08541 0.5 1.72266 2.86275 1.72266 5.77735C1.72266 6.75206 1.91344 7.75878 2.46093 8.48438L7 14.5L11.5391 8.48438C12.0364 7.82533 12.2773 6.66022 12.2773 5.77735C12.2773 2.86275 9.91459 0.5 7 0.5ZM7 3.55651C8.22636 3.55651 9.22082 4.55099 9.22082 5.77733C9.22082 7.0037 8.22636 7.99817 7 7.99817C5.77365 7.99817 4.77918 7.0037 4.77918 5.77735C4.77918 4.55099 5.77365 3.55651 7 3.55651Z" fill="black"/>
</g>
<defs>
<clipPath id="clip0_4_422">
<rect width="14" height="14" fill="white" transform="translate(0 0.5)"/>
</clipPath>
</defs>
</svg>
