<svg width="24" height="24" viewBox="0 0 24 24" xmlns="http://www.w3.org/2000/svg">
<path d="M3.1 1H3.16H6.1C6.376 1 6.6112 1 6.82 1.048C7.14317 1.12553 7.43856 1.29101 7.67345 1.52612C7.90834 1.76122 8.07356 2.05676 8.1508 2.38C8.2 2.5888 8.2 2.8252 8.2 3.1V6.1V6.10001C8.2 6.37601 8.2 6.6112 8.152 6.82C8.07447 7.14317 7.90899 7.43856 7.67388 7.67345C7.43878 7.90834 7.14324 8.07356 6.82 8.1508C6.6112 8.2 6.3748 8.2 6.1 8.2H3.1C2.824 8.2 2.5888 8.2 2.38 8.152C2.05683 8.07447 1.76144 7.90899 1.52655 7.67388C1.29166 7.43878 1.12644 7.14324 1.0492 6.82C1 6.6112 1 6.3748 1 6.1V3.1C1 2.824 1 2.5888 1.048 2.38C1.12553 2.05683 1.29101 1.76144 1.52612 1.52655C1.76122 1.29166 2.05676 1.12644 2.38 1.0492C2.5888 1 2.8252 1 3.1 1Z" fill="#766E66"/>
<path d="M11.8 1H11.86H14.8C15.076 1 15.3112 1 15.52 1.048C15.8431 1.12553 16.1385 1.29101 16.3734 1.52612C16.6083 1.76122 16.7735 2.05676 16.8508 2.38C16.9 2.5888 16.9 2.8252 16.9 3.1V6.1V6.10001C16.9 6.37601 16.9 6.6112 16.852 6.82C16.7744 7.14317 16.6089 7.43856 16.3738 7.67345C16.1387 7.90834 15.8432 8.07356 15.52 8.1508C15.3112 8.2 15.0748 8.2 14.8 8.2H11.8C11.524 8.2 11.2888 8.2 11.08 8.152C10.7568 8.07447 10.4614 7.90899 10.2265 7.67388C9.99161 7.43878 9.82639 7.14324 9.74915 6.82C9.69995 6.6112 9.69995 6.3748 9.69995 6.1V3.1C9.69995 2.824 9.69995 2.5888 9.74795 2.38C9.82548 2.05683 9.99096 1.76144 10.2261 1.52655C10.4612 1.29166 10.7567 1.12644 11.08 1.0492C11.2888 1 11.5252 1 11.8 1Z" fill="#C9C5C2"/>
<path d="M3.1 9.70001H3.16H6.1C6.376 9.70001 6.6112 9.70001 6.82 9.74801C7.14317 9.82554 7.43856 9.99103 7.67345 10.2261C7.90834 10.4612 8.07356 10.7568 8.1508 11.08C8.2 11.2888 8.2 11.5252 8.2 11.8V14.8V14.8C8.2 15.076 8.2 15.3112 8.152 15.52C8.07447 15.8432 7.90899 16.1386 7.67388 16.3735C7.43878 16.6084 7.14324 16.7736 6.82 16.8508C6.6112 16.9 6.3748 16.9 6.1 16.9H3.1C2.824 16.9 2.5888 16.9 2.38 16.852C2.05683 16.7745 1.76144 16.609 1.52655 16.3739C1.29166 16.1388 1.12644 15.8432 1.0492 15.52C1 15.3112 1 15.0748 1 14.8V11.8C1 11.524 1 11.2888 1.048 11.08C1.12553 10.7568 1.29101 10.4615 1.52612 10.2266C1.76122 9.99167 2.05676 9.82645 2.38 9.74921C2.5888 9.70001 2.8252 9.70001 3.1 9.70001Z" fill="#766E66"/>
<path d="M11.8 9.70001H11.86H14.8C15.076 9.70001 15.3112 9.70001 15.52 9.74801C15.8431 9.82554 16.1385 9.99103 16.3734 10.2261C16.6083 10.4612 16.7735 10.7568 16.8508 11.08C16.9 11.2888 16.9 11.5252 16.9 11.8V14.8V14.8C16.9 15.076 16.9 15.3112 16.852 15.52C16.7744 15.8432 16.6089 16.1386 16.3738 16.3735C16.1387 16.6084 15.8432 16.7736 15.52 16.8508C15.3112 16.9 15.0748 16.9 14.8 16.9H11.8C11.524 16.9 11.2888 16.9 11.08 16.852C10.7568 16.7745 10.4614 16.609 10.2265 16.3739C9.99161 16.1388 9.82639 15.8432 9.74915 15.52C9.69995 15.3112 9.69995 15.0748 9.69995 14.8V11.8C9.69995 11.524 9.69995 11.2888 9.74795 11.08C9.82548 10.7568 9.99096 10.4615 10.2261 10.2266C10.4612 9.99167 10.7567 9.82645 11.08 9.74921C11.2888 9.70001 11.5252 9.70001 11.8 9.70001Z" fill="#766E66"/>
</svg>
