<svg width="18" height="19" viewBox="0 0 18 19" fill="none" xmlns="http://www.w3.org/2000/svg">
<path d="M14.9658 9.39473C15.7466 8.82387 15.3428 7.5875 14.3756 7.5875H11.727C11.292 7.5875 10.907 7.30638 10.7745 6.89212L9.95247 4.32191C9.65595 3.39474 8.34405 3.39474 8.04753 4.32191L7.22552 6.89212C7.09303 7.30638 6.70798 7.5875 6.27305 7.5875H3.59319C2.62909 7.5875 2.22328 8.81738 2.99806 9.39113L5.19183 11.0157C5.5351 11.2699 5.67901 11.7141 5.55003 12.1213L4.72888 14.7138C4.4361 15.6381 5.49813 16.3964 6.27732 15.8194L8.40488 14.2438C8.75843 13.982 9.24157 13.982 9.59512 14.2438L11.7108 15.8106C12.4911 16.3885 13.5542 15.6272 13.2584 14.7023L12.4258 12.099C12.2947 11.689 12.4406 11.2412 12.788 10.9871L14.9658 9.39473Z" fill="#FFCE31"/>
</svg>
